<svg xmlns="http://www.w3.org/2000/svg" xmlns:xlink="http://www.w3.org/1999/xlink" viewBox="0 0 244.55 102.8"><defs><style>.cls-1{fill:#fff;}.cls-2{fill:url(#linear-gradient);}.cls-3{fill:none;stroke:#fff;stroke-miterlimit:10;stroke-width:5px;}</style><linearGradient id="linear-gradient" x1="94.65" y1="38.63" x2="151.55" y2="38.63" gradientUnits="userSpaceOnUse"><stop offset="0" stop-color="#695ba7"/><stop offset="1" stop-color="#bab5d9"/></linearGradient></defs><title>Asset 1</title><g id="Layer_2" data-name="Layer 2"><g id="Layer_1-2" data-name="Layer 1"><path class="cls-1" d="M123.08,92.34a28,28,0,0,1-14.33-3.87c-2-1.15-2.28-2.38-.91-4.25q6.5-8.82,13-17.61c1.53-2,3-2.06,4.5,0q6.54,8.79,13,17.6c1.44,2,1.14,3.13-1,4.37A28,28,0,0,1,123.08,92.34Zm5.51-8.68c0,1.53.21,2.8,1.8,3a1.7,1.7,0,0,0,2-1.37,2,2,0,0,0,0-.34c.1-1.24-1.51-3.21-2.57-3.13-1.41.05-1.19,1.12-1.27,1.81Zm-10.87,0c-.08-.7.16-1.77-1.14-1.92-1-.11-2.68,1.85-2.61,3.09a1.68,1.68,0,0,0,1.61,1.76,1.51,1.51,0,0,0,.3,0c1.56-.11,1.84-1.38,1.8-2.9Zm3.72,2.06c0,1.38.42,2.25,1.73,2.25a1.59,1.59,0,0,0,1.71-1.47,2,2,0,0,0,0-.43c-.06-1.28-.3-2.86-1.72-2.89s-1.56,1.56-1.74,2.56Z"/><path class="cls-1" d="M157.76,6.47,89.23,97.82c-1.35,1.8-4.32,2.18-6.64.85h0C80.28,97.34,79.5,94.8,80.85,93L149.38,1.64C150.73-.16,153.7-.54,156,.8h0C158.33,2.13,159.08,4.67,157.76,6.47Z"/><path class="cls-1" d="M150.9,89.73s-3.6-4.3-6.6-8.1c13.1-3.7,18.1-11.9,18.1-11.9a56.79,56.79,0,0,1-11.5,5.9,65.68,65.68,0,0,1-14.5,4.3,70,70,0,0,1-25.9-.1,83.15,83.15,0,0,1-14.7-4.3,57.6,57.6,0,0,1-7.3-3.4c-.3-.2-.6-.3-.9-.5a1.17,1.17,0,0,1-.4-.3c-1.8-1-2.8-1.7-2.8-1.7s4.8,8,17.5,11.8c-3,3.8-6.7,8.3-6.7,8.3-22.1-.7-30.5-15.2-30.5-15.2,0-32.2,14.4-58.3,14.4-58.3,14.4-10.8,28.1-10.5,28.1-10.5l1,1.2C90.2,12.13,81.9,20,81.9,20s2.2-1.2,5.9-2.9a74.92,74.92,0,0,1,22.7-6.3,10.67,10.67,0,0,1,1.7-.2,84.78,84.78,0,0,1,20.2-.2A81.7,81.7,0,0,1,162.5,20s-7.9-7.5-24.9-12.7l1.4-1.6s13.7-.3,28.1,10.5c0,0,14.4,26.1,14.4,58.3C181.5,74.53,173,89,150.9,89.73Z"/><path class="cls-2" d="M104.85,27.53c-5.7,0-10.2,5-10.2,11.1s4.6,11.1,10.2,11.1,10.2-5,10.2-11.1S110.55,27.53,104.85,27.53Zm36.5,0c-5.7,0-10.2,5-10.2,11.1s4.6,11.1,10.2,11.1,10.2-5,10.2-11.1S147.08,27.53,141.35,27.53Z"/><path class="cls-3" d="M217.63,50.88l-27,27a10.18,10.18,0,0,0,0,14.4h0a10.14,10.14,0,0,0,14.36,0l0,0,34.06-34a10.63,10.63,0,0,0,0-14.74L205,9.49a10.17,10.17,0,0,0-14.37,0l0,0h0a10.16,10.16,0,0,0,0,14.37l0,0Z"/><path class="cls-3" d="M26.92,51.27l27,27a10.18,10.18,0,0,1,0,14.4h0a10.17,10.17,0,0,1-14.37,0l0,0-34.06-34a10.63,10.63,0,0,1,0-14.74l34.06-34a10.15,10.15,0,0,1,14.37,0l0,0h0a10.17,10.17,0,0,1,0,14.37l0,0Z"/><ellipse class="cls-1" cx="110.3" cy="38.63" rx="2.86" ry="3.4"/><ellipse class="cls-1" cx="146.8" cy="38.63" rx="2.86" ry="3.4"/><path class="cls-1" d="M122.81,102.8a44.23,44.23,0,0,1-22.55-6.57c-2.5-1.55-2.74-2.55-1-4.84,2.67-3.53,2.31-4.72,7.55-1.89,11.37,6.14,22.84,5.71,34-.73,2.61-1.5,3.11-1.43,5,1,3.27,4.35,3.18,4.78-1.59,7.45A42.7,42.7,0,0,1,122.81,102.8Z"/></g></g></svg>