<svg xmlns="http://www.w3.org/2000/svg" viewBox="0 0 213.95 43.72"><defs><style>.cls-1{fill:#fff;}</style></defs><title>Asset 2</title><g id="Layer_2" data-name="Layer 2"><g id="rhp_text" data-name="rhp text"><path class="cls-1" d="M9,24.23v10a15.44,15.44,0,0,1-1.78.32,19.81,19.81,0,0,1-2.43.15,10.74,10.74,0,0,1-2.11-.18,3.48,3.48,0,0,1-1.5-.65,3,3,0,0,1-.89-1.31A6.44,6.44,0,0,1,0,30.38V5.84a2.35,2.35,0,0,1,.61-1.7,4.26,4.26,0,0,1,1.64-1,18.57,18.57,0,0,1,4.12-.89,41.51,41.51,0,0,1,5-.29q7.2,0,10.84,3a10.08,10.08,0,0,1,3.65,8.18,9.18,9.18,0,0,1-1.67,5.53,11.86,11.86,0,0,1-4,3.56c1.25,1.7,2.48,3.31,3.7,4.79a31,31,0,0,1,2.86,4.07,4.83,4.83,0,0,1-1.89,2.78,5.24,5.24,0,0,1-3.1,1,6.64,6.64,0,0,1-2-.27,4.92,4.92,0,0,1-1.45-.72,6,6,0,0,1-1.15-1.15,15.61,15.61,0,0,1-1-1.46l-4.37-7Zm3.28-6.93a4.58,4.58,0,0,0,3.12-1,3.79,3.79,0,0,0,1.15-3,3.6,3.6,0,0,0-1.27-3,6.56,6.56,0,0,0-4.05-1c-.41,0-.83,0-1.24.06s-.66.09-1,.16V17.3Z"/><path class="cls-1" d="M56,34.39a13,13,0,0,1-1.65.31,16.21,16.21,0,0,1-2.31.16A11.84,11.84,0,0,1,50,34.7a3.54,3.54,0,0,1-1.53-.62,3,3,0,0,1-1-1.28,5.6,5.6,0,0,1-.34-2.11V19.11a3.68,3.68,0,0,0-1.06-3,4.06,4.06,0,0,0-2.67-.89,7,7,0,0,0-2,.26,5.72,5.72,0,0,0-1.52.62V34.34a12.5,12.5,0,0,1-1.64.31,16.21,16.21,0,0,1-2.31.16,12.91,12.91,0,0,1-2.06-.16A3.56,3.56,0,0,1,32.39,34a3,3,0,0,1-1-1.27,5.63,5.63,0,0,1-.34-2.11V.47L32.77.19A13.29,13.29,0,0,1,35,0,11.84,11.84,0,0,1,37.1.16a3.67,3.67,0,0,1,1.53.62,3,3,0,0,1,1,1.28,5.4,5.4,0,0,1,.33,2.11v5.1C40.61,9,41.3,8.84,42,8.68a12.6,12.6,0,0,1,3.06-.34c3.43,0,6.12.89,8,2.58S56,15.2,56,18.6Z"/><path class="cls-1" d="M73.1,8.34a19.77,19.77,0,0,1,5.82.81,12.45,12.45,0,0,1,4.6,2.47,11.51,11.51,0,0,1,3,4.19,15,15,0,0,1,1.1,6,16.76,16.76,0,0,1-.93,5.83A11.44,11.44,0,0,1,84,31.86a10.93,10.93,0,0,1-4.14,2.53,16.79,16.79,0,0,1-5.4.84,12.55,12.55,0,0,1-4.16-.68v8.64a13.35,13.35,0,0,1-1.67.34,15.31,15.31,0,0,1-2.35.19,13,13,0,0,1-2.06-.16,3.61,3.61,0,0,1-1.53-.63,2.78,2.78,0,0,1-.89-1.27,6.08,6.08,0,0,1-.32-2.11v-25a4,4,0,0,1,.61-2.29,6.32,6.32,0,0,1,1.64-1.62,13.83,13.83,0,0,1,4-1.66A21.2,21.2,0,0,1,73.1,8.34Zm.11,19.9q5.34,0,5.34-6.4a7.69,7.69,0,0,0-1.33-5,4.68,4.68,0,0,0-3.82-1.61,6.33,6.33,0,0,0-1.79.23,7.21,7.21,0,0,0-1.35.55V27.51a8.22,8.22,0,0,0,1.35.53,5.76,5.76,0,0,0,1.6.2Z"/><path class="cls-1" d="M97.31,10.84a6.29,6.29,0,0,1-.65-1.48,6.78,6.78,0,0,1-.3-2,3.79,3.79,0,0,1,.88-2.78,3.09,3.09,0,0,1,2.26-.84h21.67a6.67,6.67,0,0,1,.94,3.48,3.76,3.76,0,0,1-.86,2.78,3.12,3.12,0,0,1-2.27.84h-5.51v23a12.87,12.87,0,0,1-1.72.29,17.92,17.92,0,0,1-2.31.15,10.53,10.53,0,0,1-2-.17,3.63,3.63,0,0,1-1.46-.62,2.79,2.79,0,0,1-.9-1.24,6.14,6.14,0,0,1-.3-2.13V10.84Z"/><path class="cls-1" d="M135.49,34.1a17.4,17.4,0,0,1-5.45-.82,12.16,12.16,0,0,1-4.37-2.47,11.15,11.15,0,0,1-2.93-4.12,14.45,14.45,0,0,1-1.06-5.82,13.44,13.44,0,0,1,1.06-5.63,10.94,10.94,0,0,1,2.81-3.88,11.33,11.33,0,0,1,4-2.24,14.87,14.87,0,0,1,4.58-.73,13.79,13.79,0,0,1,4.8.8,11.75,11.75,0,0,1,3.72,2.19,9.9,9.9,0,0,1,2.44,3.33,10.3,10.3,0,0,1,.87,4.27,3.41,3.41,0,0,1-1,2.59,4.82,4.82,0,0,1-2.63,1.14l-12.27,1.84A4.08,4.08,0,0,0,132.31,27a8.77,8.77,0,0,0,3.87.81A13.61,13.61,0,0,0,140,27.3a11.71,11.71,0,0,0,3-1.22,4.4,4.4,0,0,1,1.35,1.4,3.65,3.65,0,0,1-1.19,5,3,3,0,0,1-.36.19,11,11,0,0,1-3.57,1.14A25.89,25.89,0,0,1,135.49,34.1ZM134.1,14.56A4.9,4.9,0,0,0,132,15a4.36,4.36,0,0,0-2.23,2.47,5.57,5.57,0,0,0-.33,1.56L138,17.6a3.81,3.81,0,0,0-1.07-2A3.7,3.7,0,0,0,134.1,14.56Z"/><path class="cls-1" d="M160,8.39a20.67,20.67,0,0,1,4.89.56,11,11,0,0,1,3.78,1.66A7.67,7.67,0,0,1,171,13.44a9,9,0,0,1,.84,4.06V28.63a3.08,3.08,0,0,1-.71,2.14,7.32,7.32,0,0,1-1.72,1.42c-2.14,1.3-5.17,1.94-9.1,1.94a20.56,20.56,0,0,1-4.75-.5A11.1,11.1,0,0,1,152,32.14a6.87,6.87,0,0,1-2.32-2.53,7.45,7.45,0,0,1-.83-3.58,6.72,6.72,0,0,1,2-5.27,10.89,10.89,0,0,1,6.31-2.29l6.51-.69v-.35a2.14,2.14,0,0,0-1.27-2.07,8.42,8.42,0,0,0-3.65-.61,16.26,16.26,0,0,0-3.68.39,19.75,19.75,0,0,0-3.2,1,3.32,3.32,0,0,1-1.07-1.36,4.54,4.54,0,0,1-.45-1.91A3.16,3.16,0,0,1,151,10.8a4.76,4.76,0,0,1,1.92-1.33,14.7,14.7,0,0,1,3.41-.79A29.76,29.76,0,0,1,160,8.39Zm.39,19.54a10.66,10.66,0,0,0,1.87-.17,4.74,4.74,0,0,0,1.51-.47v-4l-3.58.3a5.63,5.63,0,0,0-2.28.59,1.62,1.62,0,0,0-.9,1.5,1.93,1.93,0,0,0,.78,1.61A4.18,4.18,0,0,0,160.34,27.93Z"/><path class="cls-1" d="M188.62,8.39a14.3,14.3,0,0,1,4,.58,9.76,9.76,0,0,1,3.4,1.72A14.5,14.5,0,0,1,199.38,9a14.94,14.94,0,0,1,8.2-.14,9.39,9.39,0,0,1,3.21,1.56,7.6,7.6,0,0,1,2.31,2.87A9.8,9.8,0,0,1,214,17.6V33.25a10.47,10.47,0,0,1-1.56.3,16.56,16.56,0,0,1-2.22.15,13,13,0,0,1-2-.15,3.44,3.44,0,0,1-1.46-.59,2.91,2.91,0,0,1-.92-1.22,5.13,5.13,0,0,1-.32-2V17.84a2.56,2.56,0,0,0-.85-2.13,3.6,3.6,0,0,0-2.29-.68,4.77,4.77,0,0,0-2.68,1,1.15,1.15,0,0,1,0,.37V33.27a10.88,10.88,0,0,1-1.61.3,15.25,15.25,0,0,1-2.13.15,10.72,10.72,0,0,1-2-.15,3.43,3.43,0,0,1-1.47-.59,2.91,2.91,0,0,1-.92-1.22,5.5,5.5,0,0,1-.32-2V17.84a2.46,2.46,0,0,0-.92-2.13,3.67,3.67,0,0,0-2.22-.68,4,4,0,0,0-1.53.27,9.84,9.84,0,0,0-1.07.52V33.27a10.6,10.6,0,0,1-1.57.3,16.3,16.3,0,0,1-2.21.15,10.83,10.83,0,0,1-2-.15,3.43,3.43,0,0,1-1.47-.59,3,3,0,0,1-.92-1.22,5.5,5.5,0,0,1-.32-2v-15a3.51,3.51,0,0,1,.58-2.13,6.18,6.18,0,0,1,1.56-1.5,14.46,14.46,0,0,1,4.2-1.94A18.44,18.44,0,0,1,188.62,8.39Z"/></g></g></svg>