<svg xmlns="http://www.w3.org/2000/svg" xmlns:xlink="http://www.w3.org/1999/xlink" width="220.48" height="29.8" viewBox="0 0 220.48 29.8">
  <defs>
    <linearGradient id="linear-gradient" x1="0.501" y1="0.959" x2="0.476" y2="-0.021" gradientUnits="objectBoundingBox">
      <stop offset="0" stop-color="#695ba7"/>
      <stop offset="1" stop-color="#bab5d9"/>
    </linearGradient>
    <linearGradient id="linear-gradient-2" x1="0.501" y1="0.946" x2="0.475" y2="0.02" xlink:href="#linear-gradient"/>
    <linearGradient id="linear-gradient-3" x1="0.506" y1="0.681" x2="0.48" y2="-0.236" xlink:href="#linear-gradient"/>
    <linearGradient id="linear-gradient-4" x1="0.522" y1="0.912" x2="0.496" y2="-0.146" xlink:href="#linear-gradient"/>
    <linearGradient id="linear-gradient-5" x1="0.509" y1="0.885" x2="0.481" y2="-0.378" xlink:href="#linear-gradient"/>
    <linearGradient id="linear-gradient-6" x1="0.507" y1="0.864" x2="0.478" y2="-0.394" xlink:href="#linear-gradient"/>
    <linearGradient id="linear-gradient-7" x1="0.504" y1="0.838" x2="0.486" y2="-0.423" xlink:href="#linear-gradient"/>
    <linearGradient id="linear-gradient-8" x1="0.5" y1="1.43" x2="0.5" y2="0.249" gradientUnits="objectBoundingBox">
      <stop offset="0" stop-color="#c3383a"/>
      <stop offset="0.502" stop-color="#ed383a"/>
      <stop offset="1" stop-color="#fac5c6"/>
    </linearGradient>
    <radialGradient id="radial-gradient" cx="40.629" cy="17.742" r="19.912" gradientTransform="translate(-13.873 -1.364) scale(0.719 0.719)" gradientUnits="userSpaceOnUse">
      <stop offset="0" stop-color="#bab5d9"/>
      <stop offset="1" stop-color="#695ba7"/>
    </radialGradient>
    <linearGradient id="linear-gradient-9" x1="0.501" y1="0.628" x2="0.491" y2="-0.588" gradientUnits="objectBoundingBox">
      <stop offset="0" stop-color="#5aba52"/>
      <stop offset="0.995" stop-color="#fff"/>
    </linearGradient>
  </defs>
  <g id="rhp-official-logo" transform="translate(-27.581 -70.049)">
    <g id="rhp_text" transform="translate(105.502 70.794)">
      <path id="Path_14" data-name="Path 14" d="M49.4,143.361v6.664a7.51,7.51,0,0,1-1.2.2c-.533.067-1.066.067-1.6.133a9.943,9.943,0,0,1-1.4-.133,1.977,1.977,0,0,1-1-.466,2.029,2.029,0,0,1-.6-.866,5.2,5.2,0,0,1-.2-1.466V131.1a1.81,1.81,0,0,1,.4-1.133,3.58,3.58,0,0,1,1.066-.666,18.08,18.08,0,0,1,2.732-.6,27.942,27.942,0,0,1,3.332-.2q4.8,0,7.2,2a6.831,6.831,0,0,1,2.466,5.465,5.582,5.582,0,0,1-1.133,3.665,7.7,7.7,0,0,1-2.666,2.4c.866,1.133,1.666,2.2,2.466,3.2a20.131,20.131,0,0,1,1.933,2.732,3.617,3.617,0,0,1-1.266,1.866,3.806,3.806,0,0,1-2.066.666,4.618,4.618,0,0,1-1.333-.2,6.725,6.725,0,0,1-1-.466,3.819,3.819,0,0,1-.733-.733,8.683,8.683,0,0,1-.666-1L51.2,143.428ZM51.53,138.7a2.967,2.967,0,0,0,2.066-.666,2.51,2.51,0,0,0,.733-2,2.34,2.34,0,0,0-.866-2,4.212,4.212,0,0,0-2.666-.666,3.245,3.245,0,0,0-.8.067,2.368,2.368,0,0,0-.666.133v5.2Z" transform="translate(-43.4 -127.167)" fill="url(#linear-gradient)"/>
      <path id="Path_15" data-name="Path 15" d="M91.085,149.425c-.333.067-.733.133-1.066.2a11.9,11.9,0,0,1-1.533.133,4.99,4.99,0,0,1-1.4-.133,2.257,2.257,0,0,1-1-.4,2.165,2.165,0,0,1-.666-.866,3.4,3.4,0,0,1-.2-1.4v-7.73a2.51,2.51,0,0,0-.733-2,2.924,2.924,0,0,0-1.8-.6,4.618,4.618,0,0,0-1.333.2,3.142,3.142,0,0,0-1,.4v12.129c-.333.067-.733.133-1.066.2a11.9,11.9,0,0,1-1.533.133,4.99,4.99,0,0,1-1.4-.133,2.257,2.257,0,0,1-1-.4,2.165,2.165,0,0,1-.666-.866,3.4,3.4,0,0,1-.2-1.4V126.833l1.133-.2a11.9,11.9,0,0,1,1.533-.133,4.99,4.99,0,0,1,1.4.133,2.257,2.257,0,0,1,1,.4,2.165,2.165,0,0,1,.666.866,2.573,2.573,0,0,1,.2,1.4v3.4l1.4-.4a10.346,10.346,0,0,1,2.066-.2,7.77,7.77,0,0,1,5.331,1.733,6.583,6.583,0,0,1,1.933,5.131Z" transform="translate(-53.766 -126.5)" fill="url(#linear-gradient-2)"/>
      <path id="Path_16" data-name="Path 16" d="M112.5,134.891a15.025,15.025,0,0,1,3.865.533,7.655,7.655,0,0,1,3.066,1.666,8.3,8.3,0,0,1,2,2.8,10.369,10.369,0,0,1,.733,4,12.348,12.348,0,0,1-.6,3.865,7.284,7.284,0,0,1-4.532,4.465,9.45,9.45,0,0,1-3.6.533,8.226,8.226,0,0,1-2.8-.466v5.731a5.721,5.721,0,0,1-1.133.2,12.939,12.939,0,0,1-1.6.133,4.99,4.99,0,0,1-1.4-.133,2.257,2.257,0,0,1-1-.4,2.029,2.029,0,0,1-.6-.866,5.073,5.073,0,0,1-.2-1.4V138.89a3.1,3.1,0,0,1,.4-1.533,4.056,4.056,0,0,1,1.066-1.066,9.456,9.456,0,0,1,2.666-1.133A17.292,17.292,0,0,1,112.5,134.891Zm.067,13.262c2.4,0,3.532-1.4,3.532-4.265a5.236,5.236,0,0,0-.866-3.332,3.151,3.151,0,0,0-2.532-1.066,7.346,7.346,0,0,0-1.2.133,2.823,2.823,0,0,0-.933.4v7.6a3.853,3.853,0,0,0,.933.333,3.314,3.314,0,0,0,1.066.2Z" transform="translate(-63.849 -129.293)" fill="url(#linear-gradient-3)"/>
      <path id="Path_17" data-name="Path 17" d="M140.26,135.025a6.725,6.725,0,0,1-.466-1,4.3,4.3,0,0,1-.2-1.333,2.438,2.438,0,0,1,.6-1.866,1.828,1.828,0,0,1,1.533-.533h14.461a4.862,4.862,0,0,1,.6,2.332,2.438,2.438,0,0,1-.6,1.866,1.828,1.828,0,0,1-1.533.533h-3.665v15.328c-.4.067-.733.133-1.133.2a5.917,5.917,0,0,1-1.533.067,4.318,4.318,0,0,1-1.333-.133,3.142,3.142,0,0,1-1-.4,1.82,1.82,0,0,1-.6-.8,5.074,5.074,0,0,1-.2-1.4v-12.8H140.26Z" transform="translate(-75.484 -127.761)" fill="url(#linear-gradient-4)"/>
      <path id="Path_18" data-name="Path 18" d="M174.192,152.06a13.062,13.062,0,0,1-3.6-.533,8.575,8.575,0,0,1-2.932-1.666,6.62,6.62,0,0,1-1.933-2.732,10.768,10.768,0,0,1-.733-3.865,7.965,7.965,0,0,1,.733-3.732,7.2,7.2,0,0,1,1.866-2.6,6.99,6.99,0,0,1,2.666-1.466,9.505,9.505,0,0,1,3.066-.466,10.385,10.385,0,0,1,3.2.533A7.132,7.132,0,0,1,178.99,137a6.44,6.44,0,0,1,1.6,2.2,6.9,6.9,0,0,1,.6,2.866,2.124,2.124,0,0,1-.666,1.733,3.355,3.355,0,0,1-1.733.733l-8.2,1.2a3.015,3.015,0,0,0,1.466,1.666,5.684,5.684,0,0,0,2.6.533,11.579,11.579,0,0,0,2.6-.333,12.51,12.51,0,0,0,2-.8,2.9,2.9,0,0,1,.866.933,2.4,2.4,0,0,1-.8,3.332c-.067.067-.133.067-.267.133a5.932,5.932,0,0,1-2.4.733A14.893,14.893,0,0,1,174.192,152.06Zm-.933-13a3.48,3.48,0,0,0-1.4.267,3.24,3.24,0,0,0-.933.733,2.615,2.615,0,0,0-.533.933,2.762,2.762,0,0,0-.2,1.066l5.665-.933a2.231,2.231,0,0,0-.733-1.333A2.166,2.166,0,0,0,173.259,139.065Z" transform="translate(-83.959 -129.335)" fill="url(#linear-gradient-5)"/>
      <path id="Path_19" data-name="Path 19" d="M199.591,134.9a13.682,13.682,0,0,1,3.265.4,7.221,7.221,0,0,1,2.532,1.133,4.8,4.8,0,0,1,1.6,1.866,5.577,5.577,0,0,1,.533,2.732v7.4a2.092,2.092,0,0,1-.466,1.4,4.968,4.968,0,0,1-1.133.933,11.743,11.743,0,0,1-6.064,1.266,17.374,17.374,0,0,1-3.2-.333,7.629,7.629,0,0,1-2.4-1,4.092,4.092,0,0,1-1.533-1.666,4.247,4.247,0,0,1-.533-2.4,4.615,4.615,0,0,1,1.333-3.532,7.349,7.349,0,0,1,4.2-1.533l4.332-.466v-.133a1.554,1.554,0,0,0-.866-1.4,5.207,5.207,0,0,0-2.466-.4,10.352,10.352,0,0,0-2.466.267,11.339,11.339,0,0,0-2.133.666,2.542,2.542,0,0,1-.733-.933,2.7,2.7,0,0,1-.267-1.266,2.623,2.623,0,0,1,.4-1.4,3.311,3.311,0,0,1,1.266-.866,8.645,8.645,0,0,1,2.266-.533A16.874,16.874,0,0,1,199.591,134.9Zm.267,13.062a8.168,8.168,0,0,0,1.266-.133,2.949,2.949,0,0,0,1-.333V144.83l-2.4.2a3.1,3.1,0,0,0-1.533.4,1.1,1.1,0,0,0-.6,1,1.391,1.391,0,0,0,.533,1.066A2.629,2.629,0,0,0,199.857,147.962Z" transform="translate(-93.031 -129.302)" fill="url(#linear-gradient-6)"/>
      <path id="Path_20" data-name="Path 20" d="M228.1,134.9a8.9,8.9,0,0,1,2.666.4,6.048,6.048,0,0,1,2.266,1.133,8.84,8.84,0,0,1,2.266-1.066,9.538,9.538,0,0,1,5.465-.067,5.365,5.365,0,0,1,2.133,1.066,4.419,4.419,0,0,1,1.533,1.933,5.953,5.953,0,0,1,.533,2.866v10.463c-.333.067-.666.133-1.066.2a5.418,5.418,0,0,1-1.466.067,8.934,8.934,0,0,1-1.333-.067,3.142,3.142,0,0,1-1-.4,1.819,1.819,0,0,1-.6-.8,4.3,4.3,0,0,1-.2-1.333v-7.93a1.465,1.465,0,0,0-.6-1.4,2.593,2.593,0,0,0-1.533-.466,2.992,2.992,0,0,0-1.8.666v11.529c-.333.067-.733.133-1.066.2a4.94,4.94,0,0,1-1.4.067,8.93,8.93,0,0,1-1.333-.067,3.142,3.142,0,0,1-1-.4,1.819,1.819,0,0,1-.6-.8,4.3,4.3,0,0,1-.2-1.333v-7.93a1.618,1.618,0,0,0-.6-1.4,2.271,2.271,0,0,0-1.466-.466,2.674,2.674,0,0,0-1,.2,6.491,6.491,0,0,1-.733.333v11.6c-.333.067-.666.133-1.066.2a5.418,5.418,0,0,1-1.466.067,8.93,8.93,0,0,1-1.333-.067,3.142,3.142,0,0,1-1-.4,1.819,1.819,0,0,1-.6-.8,4.3,4.3,0,0,1-.2-1.333v-10a2.464,2.464,0,0,1,.4-1.4,3.815,3.815,0,0,1,1.066-1,8.841,8.841,0,0,1,2.8-1.266A7.4,7.4,0,0,1,228.1,134.9Z" transform="translate(-102.411 -129.302)" fill="url(#linear-gradient-7)"/>
    </g>
    <g id="Group_1" data-name="Group 1" transform="translate(28.8 70.049)">
      <path id="Path_1" data-name="Path 1" d="M137.958,89.559a7.8,7.8,0,0,1-4.026-1.1c-.563-.31-.648-.676-.253-1.211,1.211-1.661,2.449-3.322,3.66-4.955.422-.563.845-.591,1.267,0,1.239,1.661,2.449,3.294,3.66,4.955.394.563.31.873-.282,1.239A7.513,7.513,0,0,1,137.958,89.559Zm1.548-2.449c0,.422.056.788.507.845a.477.477,0,0,0,.563-.394v-.084c.028-.338-.422-.9-.732-.873-.394,0-.338.31-.338.507Zm-3.069,0c-.028-.2.056-.507-.31-.535-.282-.028-.76.535-.732.873a.516.516,0,0,0,.45.507h.084c.422-.056.507-.394.507-.845Zm1.07.591c0,.394.113.648.479.648a.445.445,0,0,0,.479-.422v-.113c-.028-.366-.084-.816-.479-.816s-.45.422-.479.7Z" transform="translate(-103.976 -63.561)" fill="url(#linear-gradient-8)"/>
      <path id="Path_2" data-name="Path 2" d="M128.525,18.672,109.239,44.4a1.47,1.47,0,0,1-1.858.253h0a1.092,1.092,0,0,1-.479-1.6L126.188,17.32a1.433,1.433,0,0,1,1.858-.225h0A1.1,1.1,0,0,1,128.525,18.672Z" transform="translate(-84.773 -16.858)" fill="#fec20f"/>
      <path id="Path_3" data-name="Path 3" d="M115.369,46.249s-1.014-1.211-1.858-2.28a8.884,8.884,0,0,0,5.1-3.35,16,16,0,0,1-3.238,1.661,18.892,18.892,0,0,1-4.082,1.211,19.842,19.842,0,0,1-7.292-.028,23.977,23.977,0,0,1-4.139-1.211,19.386,19.386,0,0,1-2.055-.957c-.084-.056-.169-.084-.253-.141a.389.389,0,0,1-.113-.084c-.507-.282-.788-.479-.788-.479a8.756,8.756,0,0,0,4.927,3.322c-.845,1.07-1.886,2.337-1.886,2.337-6.222-.2-8.587-4.279-8.587-4.279a37.7,37.7,0,0,1,4.054-16.414,13.922,13.922,0,0,1,7.911-2.956l.282.338a18.994,18.994,0,0,0-7.4,3.688s.619-.338,1.661-.816a20.967,20.967,0,0,1,6.391-1.774,2.774,2.774,0,0,1,.479-.056,24.021,24.021,0,0,1,5.687-.056,23.006,23.006,0,0,1,8.474,2.7,18.737,18.737,0,0,0-7.01-3.576l.394-.45a13.922,13.922,0,0,1,7.911,2.956,37.7,37.7,0,0,1,4.054,16.414S121.591,46.052,115.369,46.249Z" transform="translate(-73.56 -20.983)" fill="url(#radial-gradient)"/>
      <path id="Path_4" data-name="Path 4" d="M123.972,44.4a3.136,3.136,0,1,0,2.872,3.125A3,3,0,0,0,123.972,44.4Zm10.276,0a3.136,3.136,0,1,0,2.872,3.125A3,3,0,0,0,134.248,44.4Z" transform="translate(-95.114 -36.646)" fill="#dfd6ea"/>
      <path id="Path_5" data-name="Path 5" d="M222.446,35.972l-7.6,7.6a2.855,2.855,0,0,0,0,4.054h0a2.855,2.855,0,0,0,4.054,0h0l9.6-9.572a2.957,2.957,0,0,0,0-4.139l-9.6-9.572a2.855,2.855,0,0,0-4.054,0h0a2.855,2.855,0,0,0,0,4.054h0Z" transform="translate(-161.858 -21.63)" fill="none" stroke="#707070" stroke-miterlimit="10" stroke-width="2"/>
      <path id="Path_6" data-name="Path 6" d="M35.7,36.272l7.6,7.6a2.855,2.855,0,0,1,0,4.054h0a2.855,2.855,0,0,1-4.054,0h0l-9.6-9.572a2.957,2.957,0,0,1,0-4.139l9.6-9.572a2.855,2.855,0,0,1,4.054,0h0a2.855,2.855,0,0,1,0,4.054h0Z" transform="translate(-28.8 -21.846)" fill="none" stroke="#707070" stroke-miterlimit="10" stroke-width="2"/>
      <ellipse id="Ellipse_1" data-name="Ellipse 1" cx="0.816" cy="0.957" rx="0.816" ry="0.957" transform="translate(29.562 9.922)" fill="#fec20f" stroke="#695ca8" stroke-miterlimit="10" stroke-width="0.75"/>
      <ellipse id="Ellipse_2" data-name="Ellipse 2" cx="0.816" cy="0.957" rx="0.816" ry="0.957" transform="translate(39.838 9.922)" fill="#fec20f" stroke="#695ca8" stroke-miterlimit="10" stroke-width="0.75"/>
      <path id="Path_21" data-name="Path 21" d="M131.521,108.929a12.226,12.226,0,0,1-6.335-1.858c-.7-.422-.76-.7-.282-1.351.76-.985.648-1.323,2.112-.535a9.342,9.342,0,0,0,9.572-.2c.732-.422.873-.394,1.408.282.929,1.239.9,1.351-.45,2.112A12.462,12.462,0,0,1,131.521,108.929Z" transform="translate(-97.623 -79.975)" fill="url(#linear-gradient-9)"/>
      <path id="Path_22" data-name="Path 22" d="M141.129,98.6c-.282-.028-.76.535-.732.873a.516.516,0,0,0,.45.507h.084c.45-.028.507-.394.507-.816h0C141.411,98.935,141.495,98.654,141.129,98.6Z" transform="translate(-108.977 -75.584)" fill="#62211c"/>
      <path id="Path_23" data-name="Path 23" d="M148.279,100c-.394,0-.45.45-.479.732h0c0,.394.113.648.479.648a.445.445,0,0,0,.479-.422v-.113C148.757,100.479,148.673,100.028,148.279,100Z" transform="translate(-114.297 -76.592)" fill="#62211c"/>
      <path id="Path_24" data-name="Path 24" d="M155.266,98.7c-.394,0-.338.31-.366.507h0c0,.422.056.788.507.845a.477.477,0,0,0,.563-.394V99.57C156.026,99.232,155.576,98.669,155.266,98.7Z" transform="translate(-119.398 -75.656)" fill="#62211c"/>
    </g>
  </g>
</svg>
