<?xml version="1.0" standalone="no"?>
<!DOCTYPE svg PUBLIC "-//W3C//DTD SVG 20010904//EN"
 "http://www.w3.org/TR/2001/REC-SVG-20010904/DTD/svg10.dtd">
<svg version="1.0" xmlns="http://www.w3.org/2000/svg"
 width="629.000000pt" height="629.000000pt" viewBox="0 0 629.000000 629.000000"
 preserveAspectRatio="xMidYMid meet">
<metadata>
Created by potrace 1.11, written by Peter Selinger 2001-2013
</metadata>
<g transform="translate(0.000000,629.000000) scale(0.100000,-0.100000)"
fill="#000000" stroke="none">
<path d="M4343 5359 c-31 -15 -63 -49 -127 -135 l-86 -114 -36 6 c-20 3 -46 8
-58 10 -11 3 -58 7 -103 11 -86 6 -83 7 -126 -44 -18 -20 -17 -21 35 -37 29
-9 85 -28 125 -43 l72 -25 -41 -54 c-22 -30 -41 -54 -42 -54 0 0 -35 7 -76 16
-41 9 -86 18 -100 20 -14 2 -38 6 -55 9 -16 3 -50 8 -75 11 -25 3 -56 7 -70
10 -143 24 -629 23 -781 -1 -13 -2 -49 -6 -79 -9 -184 -21 -289 -39 -463 -82
-124 -31 -341 -99 -392 -124 -11 -5 -49 -21 -85 -36 -36 -14 -114 -51 -175
-81 -60 -29 -99 -44 -85 -33 14 12 35 30 48 41 56 48 279 179 417 245 165 79
308 136 460 184 55 17 106 33 113 35 9 3 6 12 -10 31 -23 26 -25 26 -110 20
-48 -4 -111 -11 -140 -17 -29 -6 -64 -13 -78 -15 -165 -32 -382 -112 -560
-206 -115 -61 -268 -159 -298 -191 -52 -55 -229 -473 -329 -776 -45 -139 -68
-216 -129 -449 -4 -14 -16 -71 -50 -227 -2 -11 -8 -45 -14 -75 -6 -30 -12 -66
-15 -80 -3 -13 -7 -42 -10 -65 -4 -22 -8 -51 -10 -65 -5 -31 -12 -89 -20 -160
-3 -30 -8 -71 -10 -90 -7 -57 -16 -207 -20 -329 l-4 -115 43 -60 c60 -84 176
-195 282 -272 98 -71 309 -179 419 -214 39 -13 72 -24 74 -26 4 -3 -91 -134
-121 -168 -57 -63 -61 -151 -11 -214 78 -98 247 -117 326 -35 10 10 84 106
165 214 81 107 198 258 260 336 61 77 112 148 112 156 0 8 4 17 8 19 4 2 23
24 42 51 36 50 43 53 104 36 44 -12 44 -12 146 -34 41 -9 75 -17 76 -18 1 -1
-33 -51 -77 -111 -43 -60 -79 -116 -80 -125 0 -9 -2 -24 -4 -33 -11 -59 214
-176 430 -224 94 -21 339 -27 435 -10 135 23 261 65 360 119 87 47 109 66 119
100 10 39 -9 79 -94 192 -32 42 -55 78 -52 81 3 3 49 14 103 25 290 59 711
221 919 353 28 18 57 36 65 41 21 13 -36 -62 -85 -110 -126 -125 -283 -229
-445 -295 -30 -12 -64 -26 -75 -30 -11 -5 -44 -16 -73 -25 l-52 -17 32 -41
c50 -65 151 -189 172 -212 10 -11 30 -35 44 -53 l26 -34 90 6 c87 6 108 9 186
22 19 3 48 8 64 11 99 16 340 103 442 158 174 96 384 272 467 392 27 40 28 46
28 155 -1 62 -3 129 -5 148 -3 19 -7 82 -11 140 -3 57 -8 107 -9 110 -2 3 -7
39 -10 80 -20 213 -104 610 -192 910 -52 175 -152 456 -209 585 -12 28 -30 70
-41 95 -10 25 -42 93 -71 152 l-51 106 -114 75 c-62 42 -170 104 -240 139
l-126 64 30 39 c62 82 88 129 88 162 0 138 -185 238 -317 172z m157 -589 c136
-78 330 -213 275 -192 -11 4 -69 32 -130 61 -60 30 -147 68 -192 85 l-82 32
22 31 c12 17 24 30 27 29 3 -2 39 -22 80 -46z m-2842 -2347 c65 -42 304 -163
322 -163 10 0 -44 -85 -60 -95 -10 -6 -158 108 -218 167 -58 57 -118 128 -107
128 3 0 32 -17 63 -37z"/>
<path d="M2310 1709 c-27 -10 -112 -118 -147 -187 -24 -47 -20 -75 14 -111 24
-24 152 -100 238 -141 71 -33 265 -106 307 -114 163 -34 246 -48 313 -53 190
-16 388 -3 540 33 33 8 69 17 79 19 170 39 500 198 558 269 10 12 18 33 18 47
0 30 -77 154 -132 212 -49 51 -78 49 -192 -12 -179 -97 -385 -170 -530 -188
-74 -10 -292 -10 -361 -1 -149 19 -291 66 -478 157 -151 74 -187 85 -227 70z"/>
</g>
</svg>
